<?xml version="1.0" standalone="no"?>
<!DOCTYPE svg PUBLIC "-//W3C//DTD SVG 20010904//EN"
 "http://www.w3.org/TR/2001/REC-SVG-20010904/DTD/svg10.dtd">
<svg version="1.0" xmlns="http://www.w3.org/2000/svg"
 width="454.000000pt" height="454.000000pt" viewBox="0 0 454.000000 454.000000"
 preserveAspectRatio="xMidYMid meet">
<metadata>
Created by potrace 1.11, written by Peter Selinger 2001-2013
</metadata>
<g transform="translate(0.000000,454.000000) scale(0.100000,-0.100000)"
fill="#000000" stroke="none">
<path d="M2209 4307 c-43 -23 -48 -24 -80 -10 -67 29 -164 12 -216 -36 -18
-17 -26 -19 -52 -10 -38 13 -119 6 -158 -15 -17 -8 -42 -29 -56 -45 -13 -16
-27 -27 -30 -24 -10 9 -84 5 -127 -8 -38 -12 -120 -80 -120 -100 0 -5 -19 -9
-42 -9 -78 -1 -162 -57 -189 -127 -6 -16 -17 -23 -36 -23 -38 0 -108 -36 -138
-71 -13 -17 -30 -47 -36 -69 -10 -32 -17 -39 -44 -44 -65 -13 -154 -117 -155
-182 0 -15 -8 -24 -26 -28 -14 -4 -45 -26 -69 -50 -34 -35 -45 -55 -55 -100
-6 -30 -9 -60 -5 -66 3 -5 0 -10 -8 -10 -22 0 -73 -52 -97 -99 -15 -27 -23
-62 -24 -96 -1 -44 -6 -57 -30 -81 -49 -50 -65 -93 -62 -170 2 -62 -1 -73 -28
-111 -36 -52 -47 -137 -24 -193 14 -33 13 -37 -11 -74 -34 -52 -37 -152 -6
-206 19 -32 20 -38 6 -65 -34 -70 -20 -186 28 -229 16 -15 17 -21 6 -54 -24
-68 -3 -154 50 -212 19 -20 23 -35 21 -75 -4 -71 18 -127 67 -171 36 -33 41
-44 44 -85 3 -78 61 -164 122 -184 10 -3 19 -15 19 -28 4 -84 59 -160 136
-188 26 -10 36 -20 41 -43 13 -69 96 -149 165 -159 17 -3 32 -18 47 -48 37
-71 109 -119 179 -119 24 0 34 -5 39 -20 9 -29 64 -81 105 -98 19 -9 56 -16
81 -17 40 -1 52 -7 82 -38 51 -52 99 -70 174 -64 53 4 65 2 80 -16 44 -49 150
-71 222 -46 26 9 35 8 49 -5 49 -44 158 -54 222 -21 31 16 35 16 71 0 71 -32
156 -26 212 16 24 17 33 19 59 10 71 -25 177 -3 221 46 15 18 27 20 80 16 75
-6 120 11 173 63 30 31 44 37 84 39 26 2 58 6 71 10 37 12 96 64 109 96 10 24
18 29 48 29 20 0 55 9 79 21 45 22 103 86 103 113 0 9 12 21 28 27 113 45 164
92 178 165 5 25 12 34 33 39 64 14 141 109 141 174 0 25 8 36 39 55 69 44 108
115 106 196 0 16 13 36 39 60 52 47 78 109 72 173 -5 45 -2 53 28 88 18 21 37
54 43 74 13 41 9 131 -7 150 -7 9 -6 16 6 26 50 42 69 165 36 231 -18 35 -18
36 2 63 31 44 32 141 0 201 -23 44 -24 50 -11 88 7 23 12 50 11 62 -4 59 -18
103 -45 137 -22 27 -28 43 -23 59 20 66 -4 155 -58 208 -29 29 -33 40 -34 91
-2 70 -39 141 -90 171 -30 18 -40 34 -35 62 1 4 -5 30 -14 57 -18 52 -77 114
-120 125 -22 5 -28 16 -25 49 1 3 -11 28 -26 55 -29 54 -82 96 -132 106 -18 4
-32 13 -32 21 0 20 -28 74 -54 101 -26 29 -96 62 -130 62 -19 0 -29 8 -40 33
-29 68 -105 116 -183 117 -24 0 -43 4 -43 8 0 18 -72 83 -108 98 -21 8 -59 14
-88 13 -44 -2 -55 1 -80 25 -60 56 -141 78 -209 56 -30 -10 -36 -9 -54 9 -37
37 -91 53 -159 48 -34 -3 -69 -10 -77 -17 -12 -10 -22 -8 -50 10 -23 14 -58
24 -98 27 -52 4 -69 1 -108 -20z"/>
</g>
</svg>
